<svg width="69" height="69" viewBox="0 0 69 69" fill="none" xmlns="http://www.w3.org/2000/svg">
<path d="M34.0417 38C35.3533 38 36.4167 39.0633 36.4167 40.375V53.0417C36.4167 54.3533 35.3533 55.4167 34.0417 55.4167C32.73 55.4167 31.6667 54.3533 31.6667 53.0417V40.375C31.6667 39.0633 32.73 38 34.0417 38Z" fill="#6A0BFF"/>
<path fill-rule="evenodd" clip-rule="evenodd" d="M12.6667 25.5004V21.375C12.6667 9.56991 22.2366 0 34.0417 0C45.8468 0 55.4167 9.56991 55.4167 21.375V25.5004C56.135 25.5509 56.812 25.6167 57.4489 25.7023C60.2992 26.0855 62.6992 26.9054 64.6052 28.8114C66.5113 30.7175 67.3311 33.1174 67.7144 35.9678C68.0835 38.7132 68.0834 42.2039 68.0833 46.5346V46.8821C68.0834 51.2128 68.0835 54.7035 67.7144 57.4489C67.3311 60.2992 66.5113 62.6992 64.6052 64.6052C62.6992 66.5113 60.2992 67.3311 57.4489 67.7143C54.7035 68.0835 51.2128 68.0834 46.8821 68.0833H21.2013C16.8705 68.0834 13.3799 68.0835 10.6345 67.7143C7.78412 67.3311 5.38418 66.5113 3.47811 64.6052C1.57204 62.6992 0.752212 60.2992 0.368994 57.4489C-0.000113886 54.7035 -6.23075e-05 51.2128 1.6784e-06 46.8821V46.5346C-6.23075e-05 42.2039 -0.000113886 38.7132 0.368994 35.9678C0.752212 33.1174 1.57204 30.7175 3.47811 28.8114C5.38418 26.9054 7.78412 26.0855 10.6345 25.7023C11.2714 25.6167 11.9484 25.5509 12.6667 25.5004ZM17.4167 21.375C17.4167 12.1933 24.8599 4.75 34.0417 4.75C43.2234 4.75 50.6667 12.1933 50.6667 21.375V25.3442C49.4838 25.3333 48.2232 25.3333 46.8821 25.3333H21.2012C19.8601 25.3333 18.5995 25.3333 17.4167 25.3442V21.375ZM11.2674 30.41C8.94376 30.7224 7.71328 31.2938 6.83687 32.1702C5.96045 33.0466 5.38904 34.2771 5.07664 36.6007C4.75505 38.9927 4.75 42.1629 4.75 46.7083C4.75 51.2538 4.75505 54.424 5.07664 56.816C5.38904 59.1396 5.96045 60.3701 6.83687 61.2465C7.71328 62.1229 8.94376 62.6943 11.2674 63.0067C13.6593 63.3283 16.8295 63.3333 21.375 63.3333H46.7083C51.2538 63.3333 54.424 63.3283 56.816 63.0067C59.1396 62.6943 60.3701 62.1229 61.2465 61.2465C62.1229 60.3701 62.6943 59.1396 63.0067 56.816C63.3283 54.424 63.3333 51.2538 63.3333 46.7083C63.3333 42.1629 63.3283 38.9927 63.0067 36.6007C62.6943 34.2771 62.1229 33.0466 61.2465 32.1702C60.3701 31.2938 59.1396 30.7224 56.816 30.41C54.424 30.0884 51.2538 30.0833 46.7083 30.0833H21.375C16.8295 30.0833 13.6593 30.0884 11.2674 30.41Z" fill="#6A0BFF"/>
<path d="M34.0417 38C35.3533 38 36.4167 39.0633 36.4167 40.375V53.0417C36.4167 54.3533 35.3533 55.4167 34.0417 55.4167C32.73 55.4167 31.6667 54.3533 31.6667 53.0417V40.375C31.6667 39.0633 32.73 38 34.0417 38Z" stroke="#6A0BFF"/>
<path fill-rule="evenodd" clip-rule="evenodd" d="M12.6667 25.5004V21.375C12.6667 9.56991 22.2366 0 34.0417 0C45.8468 0 55.4167 9.56991 55.4167 21.375V25.5004C56.135 25.5509 56.812 25.6167 57.4489 25.7023C60.2992 26.0855 62.6992 26.9054 64.6052 28.8114C66.5113 30.7175 67.3311 33.1174 67.7144 35.9678C68.0835 38.7132 68.0834 42.2039 68.0833 46.5346V46.8821C68.0834 51.2128 68.0835 54.7035 67.7144 57.4489C67.3311 60.2992 66.5113 62.6992 64.6052 64.6052C62.6992 66.5113 60.2992 67.3311 57.4489 67.7143C54.7035 68.0835 51.2128 68.0834 46.8821 68.0833H21.2013C16.8705 68.0834 13.3799 68.0835 10.6345 67.7143C7.78412 67.3311 5.38418 66.5113 3.47811 64.6052C1.57204 62.6992 0.752212 60.2992 0.368994 57.4489C-0.000113886 54.7035 -6.23075e-05 51.2128 1.6784e-06 46.8821V46.5346C-6.23075e-05 42.2039 -0.000113886 38.7132 0.368994 35.9678C0.752212 33.1174 1.57204 30.7175 3.47811 28.8114C5.38418 26.9054 7.78412 26.0855 10.6345 25.7023C11.2714 25.6167 11.9484 25.5509 12.6667 25.5004ZM17.4167 21.375C17.4167 12.1933 24.8599 4.75 34.0417 4.75C43.2234 4.75 50.6667 12.1933 50.6667 21.375V25.3442C49.4838 25.3333 48.2232 25.3333 46.8821 25.3333H21.2012C19.8601 25.3333 18.5995 25.3333 17.4167 25.3442V21.375ZM11.2674 30.41C8.94376 30.7224 7.71328 31.2938 6.83687 32.1702C5.96045 33.0466 5.38904 34.2771 5.07664 36.6007C4.75505 38.9927 4.75 42.1629 4.75 46.7083C4.75 51.2538 4.75505 54.424 5.07664 56.816C5.38904 59.1396 5.96045 60.3701 6.83687 61.2465C7.71328 62.1229 8.94376 62.6943 11.2674 63.0067C13.6593 63.3283 16.8295 63.3333 21.375 63.3333H46.7083C51.2538 63.3333 54.424 63.3283 56.816 63.0067C59.1396 62.6943 60.3701 62.1229 61.2465 61.2465C62.1229 60.3701 62.6943 59.1396 63.0067 56.816C63.3283 54.424 63.3333 51.2538 63.3333 46.7083C63.3333 42.1629 63.3283 38.9927 63.0067 36.6007C62.6943 34.2771 62.1229 33.0466 61.2465 32.1702C60.3701 31.2938 59.1396 30.7224 56.816 30.41C54.424 30.0884 51.2538 30.0833 46.7083 30.0833H21.375C16.8295 30.0833 13.6593 30.0884 11.2674 30.41Z" stroke="#6A0BFF"/>
</svg>
