<svg width="20" height="20" viewBox="0 0 20 20" fill="none" xmlns="http://www.w3.org/2000/svg">
<path d="M10.0479 1.04175C11.9713 1.04174 13.4791 1.04185 14.6553 1.19995C15.8592 1.36182 16.81 1.69939 17.5557 2.44507C18.3012 3.19065 18.6389 4.14077 18.8008 5.34448C18.9589 6.52065 18.959 8.02842 18.959 9.9519V10.0476C18.959 11.9711 18.9589 13.4788 18.8008 14.655C18.6389 15.859 18.3013 16.8097 17.5557 17.5554C16.81 18.3011 15.8592 18.6387 14.6553 18.8005C13.4791 18.9586 11.9713 18.9588 10.0479 18.9587H9.95215C8.02866 18.9588 6.52089 18.9587 5.34473 18.8005C4.14102 18.6387 3.1909 18.3009 2.44531 17.5554C1.69964 16.8097 1.36206 15.859 1.2002 14.655C1.04209 13.4788 1.04198 11.9711 1.04199 10.0476V9.9519C1.04198 8.02842 1.04206 6.52064 1.2002 5.34448C1.36208 4.14071 1.69971 3.19067 2.44531 2.44507C3.19091 1.69947 4.14095 1.36184 5.34473 1.19995C6.52089 1.04182 8.02867 1.04174 9.95215 1.04175H10.0479ZM10 2.29175C8.01832 2.29175 6.59497 2.29357 5.51172 2.43921C4.44638 2.58244 3.80382 2.85414 3.3291 3.32886C2.85439 3.80357 2.58268 4.44614 2.43945 5.51147C2.29381 6.59473 2.29199 8.01808 2.29199 9.99976C2.29199 11.9816 2.29381 13.4057 2.43945 14.489C2.58266 15.5539 2.85463 16.196 3.3291 16.6707C3.80382 17.1454 4.44638 17.418 5.51172 17.5613C6.59497 17.7069 8.01835 17.7087 10 17.7087C11.9819 17.7087 13.4059 17.7069 14.4893 17.5613C15.5544 17.418 16.1962 17.1453 16.6709 16.6707C17.1456 16.196 17.4183 15.5542 17.5615 14.489C17.7072 13.4057 17.709 11.9816 17.709 9.99976C17.709 8.01811 17.7072 6.59472 17.5615 5.51147C17.4183 4.44614 17.1456 3.80357 16.6709 3.32886C16.1963 2.85439 15.5542 2.58242 14.4893 2.43921C13.4059 2.29356 11.9819 2.29175 10 2.29175ZM10 12.4998C10.4602 12.4998 10.834 12.8735 10.834 13.3337C10.8338 13.7938 10.4601 14.1667 10 14.1667C9.54002 14.1666 9.16717 13.7937 9.16699 13.3337C9.16699 12.8736 9.53991 12.4999 10 12.4998ZM10 5.20874C11.2081 5.20874 12.1875 6.18812 12.1875 7.39624C12.1874 8.19889 11.7552 8.90025 11.1133 9.28003C10.9493 9.37703 10.8138 9.48276 10.7256 9.58667C10.6401 9.68747 10.625 9.7531 10.625 9.79175V10.8337C10.6248 11.1788 10.3451 11.4587 10 11.4587C9.65508 11.4586 9.37518 11.1787 9.375 10.8337V9.79175C9.375 9.37034 9.55997 9.02857 9.77246 8.77808C9.98247 8.5306 10.2444 8.3412 10.4766 8.20386C10.7539 8.03975 10.9374 7.73907 10.9375 7.39624C10.9375 6.87847 10.5178 6.45874 10 6.45874C9.48238 6.45892 9.0625 6.87858 9.0625 7.39624C9.06232 7.74127 8.78257 8.02124 8.4375 8.02124C8.09258 8.02106 7.81268 7.74116 7.8125 7.39624C7.8125 6.18823 8.79203 5.20892 10 5.20874Z" fill="#6A0BFF"/>
<path d="M10.0479 1.04175C11.9713 1.04174 13.4791 1.04185 14.6553 1.19995C15.8592 1.36182 16.81 1.69939 17.5557 2.44507C18.3012 3.19065 18.6389 4.14077 18.8008 5.34448C18.9589 6.52065 18.959 8.02842 18.959 9.9519V10.0476C18.959 11.9711 18.9589 13.4788 18.8008 14.655C18.6389 15.859 18.3013 16.8097 17.5557 17.5554C16.81 18.3011 15.8592 18.6387 14.6553 18.8005C13.4791 18.9586 11.9713 18.9588 10.0479 18.9587H9.95215C8.02866 18.9588 6.52089 18.9587 5.34473 18.8005C4.14102 18.6387 3.1909 18.3009 2.44531 17.5554C1.69964 16.8097 1.36206 15.859 1.2002 14.655C1.04209 13.4788 1.04198 11.9711 1.04199 10.0476V9.9519C1.04198 8.02842 1.04206 6.52064 1.2002 5.34448C1.36208 4.14071 1.69971 3.19067 2.44531 2.44507C3.19091 1.69947 4.14095 1.36184 5.34473 1.19995C6.52089 1.04182 8.02867 1.04174 9.95215 1.04175H10.0479ZM10 2.29175C8.01832 2.29175 6.59497 2.29357 5.51172 2.43921C4.44638 2.58244 3.80382 2.85414 3.3291 3.32886C2.85439 3.80357 2.58268 4.44614 2.43945 5.51147C2.29381 6.59473 2.29199 8.01808 2.29199 9.99976C2.29199 11.9816 2.29381 13.4057 2.43945 14.489C2.58266 15.5539 2.85463 16.196 3.3291 16.6707C3.80382 17.1454 4.44638 17.418 5.51172 17.5613C6.59497 17.7069 8.01835 17.7087 10 17.7087C11.9819 17.7087 13.4059 17.7069 14.4893 17.5613C15.5544 17.418 16.1962 17.1453 16.6709 16.6707C17.1456 16.196 17.4183 15.5542 17.5615 14.489C17.7072 13.4057 17.709 11.9816 17.709 9.99976C17.709 8.01811 17.7072 6.59472 17.5615 5.51147C17.4183 4.44614 17.1456 3.80357 16.6709 3.32886C16.1963 2.85439 15.5542 2.58242 14.4893 2.43921C13.4059 2.29356 11.9819 2.29175 10 2.29175ZM10 12.4998C10.4602 12.4998 10.834 12.8735 10.834 13.3337C10.8338 13.7938 10.4601 14.1667 10 14.1667C9.54002 14.1666 9.16717 13.7937 9.16699 13.3337C9.16699 12.8736 9.53991 12.4999 10 12.4998ZM10 5.20874C11.2081 5.20874 12.1875 6.18812 12.1875 7.39624C12.1874 8.19889 11.7552 8.90025 11.1133 9.28003C10.9493 9.37703 10.8138 9.48276 10.7256 9.58667C10.6401 9.68747 10.625 9.7531 10.625 9.79175V10.8337C10.6248 11.1788 10.3451 11.4587 10 11.4587C9.65508 11.4586 9.37518 11.1787 9.375 10.8337V9.79175C9.375 9.37034 9.55997 9.02857 9.77246 8.77808C9.98247 8.5306 10.2444 8.3412 10.4766 8.20386C10.7539 8.03975 10.9374 7.73907 10.9375 7.39624C10.9375 6.87847 10.5178 6.45874 10 6.45874C9.48238 6.45892 9.0625 6.87858 9.0625 7.39624C9.06232 7.74127 8.78257 8.02124 8.4375 8.02124C8.09258 8.02106 7.81268 7.74116 7.8125 7.39624C7.8125 6.18823 8.79203 5.20892 10 5.20874Z" stroke="#6A0BFF"/>
</svg>
