<svg width="30" height="30" viewBox="0 0 30 30" fill="none" xmlns="http://www.w3.org/2000/svg">
<path fill-rule="evenodd" clip-rule="evenodd" d="M6.85049 2.37889C6.85049 2.37892 6.85048 2.37885 6.85049 2.37889C6.79234 2.08548 6.53437 1.87399 6.23522 1.875C5.936 1.87601 5.67949 2.08895 5.62341 2.38285L5.62299 2.385L5.6206 2.39698C5.61834 2.40819 5.61474 2.42569 5.60977 2.44882C5.59984 2.4951 5.58452 2.56365 5.56366 2.64898C5.52178 2.82027 5.45837 3.05597 5.37262 3.31331C5.19175 3.85606 4.94533 4.38845 4.66251 4.6732C4.37968 4.95794 3.84896 5.20795 3.30745 5.39248C3.0507 5.47997 2.81543 5.54496 2.64443 5.588C2.55924 5.60944 2.4908 5.62523 2.44458 5.63547C2.42149 5.64059 2.40401 5.64431 2.39281 5.64665L2.38085 5.64912L2.37889 5.64951C2.08537 5.70758 1.87399 5.96556 1.875 6.26478C1.87601 6.564 2.08895 6.82051 2.38285 6.87659L2.385 6.87701L2.39698 6.8794C2.40819 6.88166 2.42569 6.88526 2.44882 6.89023C2.4951 6.90016 2.56365 6.91548 2.64898 6.93635C2.82027 6.97822 3.05597 7.04163 3.31331 7.12738C3.85606 7.30825 4.38845 7.55467 4.6732 7.83749C4.95794 8.12032 5.20795 8.65104 5.39248 9.19255C5.47997 9.4493 5.54496 9.68457 5.588 9.85557C5.60944 9.94076 5.62523 10.0092 5.63547 10.0554C5.64059 10.0785 5.64431 10.096 5.64665 10.1072L5.64912 10.1191L5.64951 10.1211C5.70758 10.4146 5.96556 10.626 6.26478 10.625C6.564 10.624 6.82051 10.411 6.87659 10.1171L6.87701 10.115L6.8794 10.103C6.88166 10.0918 6.88526 10.0743 6.89023 10.0512C6.90016 10.0049 6.91548 9.93635 6.93635 9.85102C6.97822 9.67973 7.04163 9.44403 7.12738 9.18669C7.30825 8.64394 7.55467 8.11155 7.83749 7.8268C8.12032 7.54206 8.65104 7.29205 9.19255 7.10752C9.4493 7.02003 9.68457 6.95504 9.85557 6.912C9.94076 6.89056 10.0092 6.87477 10.0554 6.86453C10.0785 6.85941 10.096 6.85569 10.1072 6.85335L10.1191 6.85088L10.1211 6.85049C10.121 6.8505 10.1212 6.85047 10.1211 6.85049C10.4145 6.79232 10.626 6.53435 10.625 6.23522C10.624 5.936 10.411 5.67949 10.1171 5.62341L10.115 5.62299L10.103 5.6206C10.0918 5.61834 10.0743 5.61474 10.0512 5.60978C10.0049 5.59984 9.93635 5.58452 9.85102 5.56366C9.67973 5.52178 9.44403 5.45837 9.18669 5.37262C8.64394 5.19175 8.11155 4.94533 7.8268 4.66251C7.54206 4.37968 7.29205 3.84896 7.10752 3.30745C7.02003 3.0507 6.95504 2.81543 6.912 2.64443C6.89056 2.55924 6.87477 2.4908 6.86453 2.44458C6.85941 2.42149 6.85569 2.40401 6.85335 2.39281L6.85088 2.38085L6.85049 2.37889ZM7.99517 6.2441C7.61668 6.06629 7.23648 5.83798 6.94591 5.54937C6.65534 5.26076 6.42447 4.88211 6.2441 4.50483C6.06629 4.88332 5.83798 5.26352 5.54937 5.55409C5.26076 5.84466 4.88211 6.07553 4.50483 6.2559C4.88332 6.43371 5.26352 6.66202 5.55409 6.95063C5.84466 7.23924 6.07553 7.61789 6.2559 7.99517C6.43371 7.61668 6.66202 7.23648 6.95063 6.94591C7.23924 6.65534 7.61789 6.42447 7.99517 6.2441Z" fill="#303030"/>
<path fill-rule="evenodd" clip-rule="evenodd" d="M23.75 4.0625C24.2678 4.0625 24.6875 4.48223 24.6875 5V5.3125H25C25.5178 5.3125 25.9375 5.73223 25.9375 6.25C25.9375 6.76777 25.5178 7.1875 25 7.1875H24.6875V7.5C24.6875 8.01777 24.2678 8.4375 23.75 8.4375C23.2322 8.4375 22.8125 8.01777 22.8125 7.5V7.1875H22.5C21.9822 7.1875 21.5625 6.76777 21.5625 6.25C21.5625 5.73223 21.9822 5.3125 22.5 5.3125H22.8125V5C22.8125 4.48223 23.2322 4.0625 23.75 4.0625ZM14.9844 7.72535C14.5738 8.26152 14.1073 9.09334 13.4191 10.3279L13.0709 10.9525C13.0485 10.9928 13.0262 11.0328 13.0041 11.0726C12.6901 11.6382 12.4063 12.1496 11.9471 12.4981C11.4824 12.8509 10.9171 12.9777 10.3049 13.115C10.2618 13.1246 10.2185 13.1343 10.175 13.1442L9.4989 13.2972C8.16034 13.6 7.2658 13.8052 6.65679 14.0452C6.06545 14.2782 5.9862 14.4515 5.95622 14.5478C5.92307 14.6545 5.89568 14.8624 6.25049 15.426C6.61168 15.9998 7.22415 16.7197 8.1351 17.785L8.59604 18.324C8.62482 18.3576 8.65343 18.391 8.68185 18.4241C9.10332 18.9154 9.47931 19.3536 9.65207 19.9092C9.82366 20.461 9.76673 21.0393 9.70215 21.6953C9.6978 21.7395 9.69341 21.7841 9.68905 21.8291L9.61936 22.5482C9.48176 23.9682 9.39079 24.9308 9.42151 25.6205C9.45217 26.3086 9.59633 26.4479 9.66295 26.4985C9.71427 26.5375 9.852 26.6385 10.4676 26.4621C11.0953 26.2823 11.9349 25.8986 13.1883 25.3215L13.8214 25.0301C13.8629 25.0109 13.9043 24.9918 13.9454 24.9728C14.5145 24.7094 15.0447 24.4639 15.625 24.4639C16.2053 24.4639 16.7355 24.7094 17.3046 24.9728C17.3457 24.9918 17.3871 25.0109 17.4286 25.0301L18.0617 25.3216C19.3151 25.8986 20.1547 26.2823 20.7824 26.4621C21.398 26.6385 21.5357 26.5375 21.5871 26.4985C21.6537 26.4479 21.7978 26.3086 21.8285 25.6205C21.8592 24.9308 21.7682 23.9682 21.6306 22.5482L21.561 21.8291C21.5566 21.7841 21.5522 21.7395 21.5479 21.6953C21.4833 21.0393 21.4263 20.461 21.5979 19.9092C21.7707 19.3536 22.1467 18.9154 22.5682 18.4241C22.5966 18.391 22.6252 18.3576 22.654 18.324L23.1149 17.785C24.0259 16.7197 24.6383 15.9998 24.9995 15.426C25.3543 14.8624 25.3269 14.6545 25.2938 14.5478C25.2638 14.4515 25.1846 14.2782 24.5932 14.0452C23.9842 13.8052 23.0897 13.6 21.7511 13.2972L21.075 13.1442C21.0315 13.1343 20.9882 13.1246 20.9451 13.115C20.3329 12.9777 19.7676 12.8509 19.3029 12.4981C18.8437 12.1496 18.5599 11.6382 18.2459 11.0726C18.2238 11.0328 18.2015 10.9928 18.1791 10.9525L17.8309 10.3279C17.1427 9.09334 16.6762 8.26152 16.2656 7.72535C15.8555 7.18978 15.6784 7.1875 15.625 7.1875C15.5716 7.1875 15.3945 7.18978 14.9844 7.72535ZM13.4957 6.58535C14.01 5.91378 14.6724 5.3125 15.625 5.3125C16.5776 5.3125 17.24 5.91378 17.7543 6.58535C18.2583 7.24344 18.7902 8.19775 19.4309 9.34726L19.8168 10.0395C20.24 10.7987 20.3318 10.9251 20.4366 11.0047C20.5355 11.0798 20.6655 11.1291 21.4888 11.3154L22.2425 11.4859C23.483 11.7666 24.521 12.0014 25.2807 12.3008C26.0737 12.6133 26.8033 13.0878 27.0842 13.9911C27.3619 14.8842 27.0446 15.6969 26.5863 16.4249C26.143 17.1291 25.4381 17.9534 24.5895 18.9456L24.079 19.5426C23.5221 20.1938 23.4317 20.3265 23.3884 20.466C23.3438 20.6094 23.3431 20.7801 23.4272 21.6482L23.5041 22.4422C23.6327 23.7683 23.739 24.865 23.7016 25.7039C23.6635 26.5601 23.468 27.4247 22.7208 27.9919C21.9582 28.5708 21.0772 28.4971 20.2659 28.2646C19.483 28.0403 18.5117 27.593 17.3504 27.0583L16.6445 26.7332C15.8705 26.3769 15.7399 26.3389 15.625 26.3389C15.5101 26.3389 15.3795 26.3769 14.6055 26.7332L13.8996 27.0583C12.7383 27.593 11.767 28.0403 10.9841 28.2646C10.1728 28.4971 9.29182 28.5708 8.52924 27.9919C7.78196 27.4247 7.58651 26.5601 7.54837 25.7039C7.511 24.865 7.6173 23.7683 7.74585 22.4422L7.82279 21.6482C7.90691 20.7801 7.90624 20.6094 7.86164 20.466C7.81828 20.3265 7.72795 20.1938 7.17104 19.5426L6.66047 18.9456C5.81191 17.9534 5.10702 17.1291 4.66372 16.4249C4.20543 15.6969 3.88807 14.8842 4.1658 13.9911C4.4467 13.0878 5.17625 12.6133 5.96933 12.3008C6.72896 12.0014 7.76701 11.7666 9.00753 11.4859L9.76124 11.3154C10.5845 11.1292 10.7145 11.0798 10.8134 11.0047C10.9182 10.9251 11.01 10.7987 11.4332 10.0395L11.8191 9.34726C12.4598 8.19775 12.9918 7.24344 13.4957 6.58535Z" fill="#303030"/>
</svg>
